# Blender v2.80 (sub 75) OBJ File: ''
# www.blender.org
mtllib bear.mtl
o Cube
v 0.861362 0.943126 -0.768012
v 1.000000 -1.000000 -0.721027
v 1.000000 0.902328 0.881904
v 1.000000 -1.000000 0.721027
v 1.152399 0.000000 -0.968631
v 1.152399 0.000000 0.968631
v 0.365910 -1.143666 -1.061522
v 0.365910 1.061522 1.061522
v 0.558811 -1.143666 1.061522
v 0.517442 1.057316 -0.870258
v 0.421794 0.000000 -1.223296
v 0.645244 0.000000 1.223296
v 0.909698 1.075426 -0.148440
v 1.063877 -1.063133 0.000000
v 1.226058 0.001055 0.000000
v 0.389087 -1.216020 0.000000
v 0.529653 1.085561 -0.145082
v 0.302017 -0.945200 1.598654
v 0.347781 -0.339656 1.684309
v 0.365910 1.061522 -1.061522
v 1.000000 0.902328 -0.881904
v 1.063877 1.065242 0.000000
v 0.389087 1.130712 0.000000
v 0.519429 1.277003 -0.945476
v 1.163930 1.277003 -0.843229
v 1.229133 1.277003 -0.223658
v 0.531640 1.277003 -0.220300
v 0.519429 1.708923 -0.945476
v 1.163930 1.708923 -0.843229
v 1.229133 1.708923 -0.223658
v 0.531640 1.708923 -0.220300
v 0.702881 1.900052 -0.737478
v 1.001264 1.900052 -0.690141
v 1.031451 1.900052 -0.403300
v 0.708535 1.900052 -0.401745
v 0.390562 -1.235162 -0.471902
v 0.423388 -1.235162 0.348781
v 0.264742 -1.218172 -0.670566
v 0.611983 -3.769898 0.154006
v 0.572263 -3.769898 -0.442824
v 0.925032 -3.016555 -0.837610
v 0.929208 -2.318657 -0.382094
v 0.819949 -1.933060 -0.344397
v 0.878250 -1.933061 0.216927
v 0.995304 -2.318657 0.254278
v 1.001603 -3.016555 0.709854
v 0.214528 -3.769898 0.154006
v 0.192615 -3.769898 -0.442824
v -0.031002 -1.828960 -0.834265
v -0.027319 -2.422757 -0.973130
v -0.026656 -3.016555 -0.946146
v 0.832482 -3.610353 0.580446
v 0.768777 -3.610353 -0.707003
v -0.023003 -3.749266 -0.797303
v 0.317822 -5.161658 0.108331
v 0.573809 -5.161658 0.108331
v 0.562950 -5.024244 -0.402420
v 0.302375 -5.024244 -0.402420
v 0.223738 -4.224772 -0.442824
v 0.634030 -4.224772 -0.442824
v 0.651129 -4.737890 0.224890
v 0.248060 -4.737890 0.224890
v 0.238366 -5.237215 0.664564
v 0.660823 -5.237215 0.664564
v 0.660823 -4.782340 0.730177
v 0.238366 -4.782340 0.730177
v 0.953359 -2.422757 -0.861287
v 0.785106 -1.828960 -0.739436
v 0.852006 -1.828960 0.612581
v 1.032263 -2.422758 0.733314
v 1.773747 -2.265088 -0.516239
v 1.631925 -1.764572 -0.467307
v 1.707602 -1.764573 0.261309
v 1.859541 -2.265089 0.309791
v 2.744324 -2.136422 -0.561770
v 2.602503 -1.635906 -0.512839
v 2.678179 -1.635906 0.215777
v 2.830118 -2.136422 0.264260
v 2.962286 -1.969608 -0.452276
v 2.868105 -1.637224 -0.419781
v 2.918360 -1.637225 0.064080
v 3.019260 -1.969609 0.096277
v -0.861362 0.943126 -0.768012
v -1.000000 -1.000000 -0.721027
v -1.000000 0.902328 0.881904
v -1.000000 -1.000000 0.721027
v -1.152399 0.000000 -0.968631
v -1.152399 0.000000 0.968631
v -0.365910 -1.143666 -1.061522
v -0.365910 1.061522 1.061522
v -0.558811 -1.143666 1.061522
v -0.517442 1.057316 -0.870258
v -0.421794 0.000000 -1.223296
v -0.645244 0.000000 1.223296
v -0.909698 1.075426 -0.148440
v -1.063877 -1.063133 0.000000
v -1.226058 0.001055 0.000000
v -0.389087 -1.216020 0.000000
v -0.529653 1.085561 -0.145082
v -0.302017 -0.945200 1.598654
v -0.347781 -0.339656 1.684309
v -0.365910 1.061522 -1.061522
v -1.000000 0.902328 -0.881904
v -1.063877 1.065242 0.000000
v -0.389087 1.130712 0.000000
v -0.519429 1.277003 -0.945476
v -1.163930 1.277003 -0.843229
v -1.229133 1.277003 -0.223658
v -0.531640 1.277003 -0.220300
v -0.519429 1.708923 -0.945476
v -1.163930 1.708923 -0.843229
v -1.229133 1.708923 -0.223658
v -0.531640 1.708923 -0.220300
v -0.702881 1.900052 -0.737478
v -1.001264 1.900052 -0.690141
v -1.031451 1.900052 -0.403300
v -0.708535 1.900052 -0.401745
v -0.390562 -1.235162 -0.471902
v -0.423388 -1.235162 0.348781
v -0.264742 -1.218172 -0.670566
v -0.611983 -3.769898 0.154006
v -0.572263 -3.769898 -0.442824
v -0.925032 -3.016555 -0.837610
v -0.929208 -2.318657 -0.382094
v -0.819949 -1.933060 -0.344397
v -0.878250 -1.933061 0.216927
v -0.995304 -2.318657 0.254278
v -1.001603 -3.016555 0.709854
v 0.000000 -1.143666 -1.061522
v 0.000000 1.061522 1.061522
v 0.000000 -1.143666 1.061522
v 0.000000 1.061522 -1.061522
v 0.000000 0.000000 -1.223296
v 0.000000 0.000000 1.223296
v 0.000000 1.130712 0.000000
v 0.000000 -0.945200 1.598654
v 0.000000 -0.339656 1.684309
v -0.000000 -1.235162 0.410125
v -0.000000 -1.235162 -0.529464
v 0.000000 -1.218172 -0.670578
v -0.214528 -3.769898 0.154006
v -0.192615 -3.769898 -0.442824
v -0.000000 -1.828960 0.713640
v -0.000000 -2.422757 0.852505
v -0.000000 -3.016555 0.825521
v 0.031002 -1.828960 -0.834265
v 0.027319 -2.422757 -0.973130
v 0.026656 -3.016555 -0.946146
v -0.832482 -3.610353 0.580446
v -0.768777 -3.610353 -0.707003
v 0.023003 -3.749266 -0.797303
v -0.000000 -3.749266 0.676678
v -0.269317 -5.161658 0.108331
v -0.525305 -5.161658 0.108331
v -0.514445 -5.024244 -0.402420
v -0.253871 -5.024244 -0.402420
v -0.175234 -4.224772 -0.442824
v -0.585525 -4.224772 -0.442824
v -0.602624 -4.737890 0.224890
v -0.199555 -4.737890 0.224890
v -0.189861 -5.237215 0.664564
v -0.612318 -5.237215 0.664564
v -0.612318 -4.782340 0.730177
v -0.189861 -4.782340 0.730177
v -0.953359 -2.422757 -0.861287
v -0.785106 -1.828960 -0.739436
v -0.852006 -1.828960 0.612581
v -1.032263 -2.422758 0.733314
v -1.773747 -2.265088 -0.516239
v -1.631925 -1.764572 -0.467307
v -1.707602 -1.764573 0.261309
v -1.859541 -2.265089 0.309791
v -2.744325 -2.136422 -0.561770
v -2.602503 -1.635906 -0.512839
v -2.678179 -1.635906 0.215777
v -2.830119 -2.136422 0.264260
v -2.962286 -1.969608 -0.452276
v -2.868105 -1.637224 -0.419781
v -2.918360 -1.637225 0.064080
v -3.019260 -1.969609 0.096277
vt 0.543180 0.875000
vt 0.625000 0.875000
vt 0.625000 1.000000
vt 0.543180 1.000000
vt 0.250000 0.625000
vt 0.375000 0.625000
vt 0.375000 0.750000
vt 0.250000 0.750000
vt 0.750000 0.668180
vt 0.875000 0.668180
vt 0.875000 0.750000
vt 0.750000 0.750000
vt 0.625000 0.668180
vt 0.625000 0.750000
vt 0.125000 0.625000
vt 0.125000 0.750000
vt 0.375000 0.250000
vt 0.500000 0.250000
vt 0.500000 0.331820
vt 0.375000 0.331820
vt 0.625000 0.626513
vt 0.750000 0.626513
vt 0.875000 0.626513
vt 0.625000 0.250000
vt 0.625000 0.331820
vt 0.375000 0.125000
vt 0.456820 0.125000
vt 0.456820 0.250000
vt 0.375000 0.250000
vt 0.393079 0.105320
vt 0.393515 0.020100
vt 0.393515 0.020100
vt 0.393079 0.105320
vt 0.319276 0.341334
vt 0.320512 0.321205
vt 0.125000 0.500000
vt 0.250000 0.500000
vt 0.375000 0.500000
vt 0.543180 0.750000
vt 0.501513 1.000000
vt 0.543180 1.000000
vt 0.501513 1.000000
vt 0.500000 0.331820
vt 0.375000 0.331820
vt 0.438342 0.018763
vt 0.375000 0.000000
vt 0.456820 0.000000
vt 0.438755 0.106633
vt 0.438342 0.018763
vt 0.438755 0.106633
vt 0.438342 0.018763
vt 0.438755 0.106633
vt 0.438755 0.106633
vt 0.438342 0.018763
vt 0.393079 0.105320
vt 0.393079 0.105320
vt 0.393515 0.020100
vt 0.393515 0.020100
vt 0.000000 0.000000
vt 0.000000 0.000000
vt 0.000000 0.000000
vt 0.000000 0.000000
vt 0.000000 0.000000
vt 0.000000 0.000000
vt 0.000000 0.000000
vt 0.000000 0.000000
vt 0.000000 0.000000
vt 0.000000 0.000000
vt 0.000000 0.000000
vt 0.000000 0.000000
vt 0.000000 0.000000
vt 0.000000 0.000000
vt 0.000000 0.000000
vt 0.000000 0.000000
vt 0.000000 0.000000
vt 0.000000 0.000000
vt 0.000000 0.000000
vt 0.000000 0.000000
vt 0.000000 0.000000
vt 0.000000 0.000000
vt 0.000000 0.000000
vt 0.000000 0.000000
vt 0.000000 0.000000
vt 0.000000 0.000000
vt 0.000000 0.000000
vt 0.500000 0.373487
vt 0.500000 0.373487
vt 0.375000 0.373487
vt 0.498487 0.000000
vt 0.498487 0.125000
vt 0.498487 0.250000
vt 0.625000 0.373487
vt 0.000000 0.000000
vt 0.000000 0.000000
vt 0.000000 0.000000
vt 0.000000 0.000000
vt 0.000000 0.000000
vt 0.000000 0.000000
vt 0.000000 0.000000
vt 0.000000 0.000000
vt 0.000000 0.000000
vt 0.000000 0.000000
vt 0.000000 0.000000
vt 0.000000 0.000000
vt 0.000000 0.000000
vt 0.000000 0.000000
vt 0.000000 0.000000
vt 0.000000 0.000000
vt 0.000000 0.000000
vt 0.000000 0.000000
vt 0.000000 0.000000
vt 0.000000 0.000000
vt 0.000000 0.000000
vt 0.000000 0.000000
vt 0.000000 0.000000
vt 0.000000 0.000000
vt 0.000000 0.000000
vt 0.543180 0.875000
vt 0.543180 1.000000
vt 0.625000 1.000000
vt 0.625000 0.875000
vt 0.250000 0.625000
vt 0.250000 0.750000
vt 0.375000 0.750000
vt 0.375000 0.625000
vt 0.750000 0.668180
vt 0.750000 0.750000
vt 0.875000 0.750000
vt 0.875000 0.668180
vt 0.625000 0.668180
vt 0.625000 0.750000
vt 0.125000 0.625000
vt 0.125000 0.750000
vt 0.375000 0.250000
vt 0.375000 0.331820
vt 0.500000 0.331820
vt 0.500000 0.250000
vt 0.625000 0.331820
vt 0.625000 0.250000
vt 0.375000 0.125000
vt 0.375000 0.250000
vt 0.456820 0.250000
vt 0.456820 0.125000
vt 0.393079 0.105320
vt 0.393079 0.105320
vt 0.393515 0.020100
vt 0.393515 0.020100
vt 0.319276 0.341334
vt 0.125000 0.500000
vt 0.250000 0.500000
vt 0.375000 0.500000
vt 0.543180 0.750000
vt 0.543180 1.000000
vt 0.375000 0.331820
vt 0.500000 0.331820
vt 0.438342 0.018763
vt 0.456820 0.000000
vt 0.375000 0.000000
vt 0.438755 0.106633
vt 0.438342 0.018763
vt 0.438755 0.106633
vt 0.438342 0.018763
vt 0.438342 0.018763
vt 0.438755 0.106633
vt 0.438755 0.106633
vt 0.393079 0.105320
vt 0.393079 0.105320
vt 0.393515 0.020100
vt 0.393515 0.020100
vt 0.000000 0.000000
vt 0.000000 0.000000
vt 0.000000 0.000000
vt 0.000000 0.000000
vt 0.000000 0.000000
vt 0.000000 0.000000
vt 0.000000 0.000000
vt 0.000000 0.000000
vt 0.000000 0.000000
vt 0.000000 0.000000
vt 0.000000 0.000000
vt 0.000000 0.000000
vt 0.000000 0.000000
vt 0.000000 0.000000
vt 0.000000 0.000000
vt 0.000000 0.000000
vt 0.000000 0.000000
vt 0.000000 0.000000
vt 0.000000 0.000000
vt 0.000000 0.000000
vt 0.000000 0.000000
vt 0.000000 0.000000
vt 0.000000 0.000000
vt 0.000000 0.000000
vt 0.000000 0.000000
vt 0.000000 0.000000
vt 0.000000 0.000000
vt 0.000000 0.000000
vt 0.000000 0.000000
vt 0.000000 0.000000
vt 0.000000 0.000000
vt 0.000000 0.000000
vt 0.000000 0.000000
vt 0.000000 0.000000
vt 0.000000 0.000000
vt 0.000000 0.000000
vt 0.000000 0.000000
vt 0.000000 0.000000
vt 0.000000 0.000000
vt 0.000000 0.000000
vt 0.000000 0.000000
vt 0.000000 0.000000
vt 0.000000 0.000000
vt 0.000000 0.000000
vt 0.000000 0.000000
vt 0.000000 0.000000
vn 0.2726 -0.9605 0.0568
vn 0.9831 0.1611 0.0873
vn 0.3158 0.1520 -0.9366
vn 0.4093 -0.2094 -0.8880
vn 0.9833 -0.1602 0.0859
vn 0.5423 -0.2155 0.8121
vn 0.0000 -0.1401 -0.9901
vn 0.0000 0.1507 -0.9886
vn 0.3726 0.1967 0.9069
vn 0.1844 0.9749 0.1247
vn 0.6551 -0.7552 0.0206
vn 0.0000 -0.9823 -0.1872
vn 0.9833 -0.1602 -0.0859
vn 0.9831 0.1611 -0.0873
vn 0.2412 -0.9667 -0.0853
vn 0.0000 -0.9380 0.3466
vn 0.8744 -0.1321 0.4669
vn 0.3006 0.9454 -0.1261
vn 0.1912 0.9603 -0.2031
vn 0.1751 0.9829 -0.0571
vn 0.0706 0.9901 -0.1212
vn 0.1533 -0.3368 -0.9290
vn 0.0091 0.3509 0.9364
vn -0.9997 0.0157 0.0165
vn -0.7280 0.6854 0.0123
vn 0.0035 0.6868 0.7269
vn 0.9945 0.0000 -0.1047
vn 0.1567 0.0000 -0.9876
vn 0.0048 0.0000 1.0000
vn -0.9999 0.0000 0.0168
vn 0.0000 1.0000 0.0000
vn 0.7282 0.6811 -0.0766
vn 0.1151 0.6788 -0.7252
vn 0.0090 -0.9947 -0.1028
vn 0.7341 -0.6657 -0.1340
vn 0.9898 -0.0983 -0.1027
vn 0.1283 -0.2192 0.9672
vn 0.9633 -0.2640 -0.0477
vn 0.8212 0.5693 -0.0377
vn 0.0623 -0.9980 -0.0065
vn 0.9976 -0.0496 -0.0494
vn 0.1121 0.4610 0.8803
vn 0.1130 0.2285 0.9670
vn 0.1146 -0.0451 0.9924
vn 0.1132 -0.0450 -0.9926
vn 0.1112 0.2284 -0.9672
vn 0.1113 0.4589 -0.8815
vn 0.0000 -0.0505 -0.9987
vn 0.0083 -0.9912 0.1321
vn 0.0000 0.8051 0.5932
vn 0.0000 -0.1401 0.9901
vn 0.0000 0.9979 -0.0650
vn 0.0000 0.9979 0.0650
vn 0.0000 0.1507 0.9886
vn 0.1277 -0.2185 -0.9674
vn 0.1245 -0.9749 0.1843
vn 0.6156 -0.7873 -0.0338
vn 0.1343 -0.9503 -0.2809
vn -0.0947 -0.9955 0.0021
vn 0.0000 -0.9657 -0.2598
vn -0.9941 -0.0602 -0.0903
vn -0.9942 -0.0998 -0.0405
vn 0.9909 -0.0930 -0.0968
vn 0.9974 0.0699 -0.0164
vn -0.9988 -0.0445 0.0185
vn 0.0000 0.0730 0.9973
vn 0.0000 0.0000 -1.0000
vn 0.0000 -0.1428 0.9898
vn 0.0000 -0.9909 -0.1346
vn 0.0000 0.9962 0.0876
vn 0.9929 -0.0670 -0.0980
vn 0.9847 -0.1619 -0.0645
vn -0.9872 -0.1590 -0.0129
vn 0.9616 0.2744 -0.0118
vn 0.9573 0.2887 -0.0117
vn 0.9576 0.2812 -0.0627
vn 0.9576 0.2811 -0.0622
vn -0.1308 0.9913 0.0136
vn -0.0686 0.0755 0.9948
vn -0.2001 0.9796 0.0208
vn -0.1598 0.0511 -0.9858
vn 0.0052 1.0000 -0.0005
vn -0.0574 0.0810 -0.9951
vn 0.1308 -0.9913 -0.0136
vn 0.0325 0.1061 0.9938
vn 0.9548 0.2802 -0.0992
vn 0.3259 0.1830 -0.9275
vn 0.6269 -0.7764 -0.0651
vn 0.5197 0.2373 0.8208
vn -0.2726 -0.9605 0.0568
vn -0.9831 0.1611 0.0873
vn -0.3158 0.1520 -0.9366
vn -0.4093 -0.2094 -0.8880
vn -0.9833 -0.1602 0.0859
vn -0.5423 -0.2155 0.8121
vn -0.3726 0.1967 0.9069
vn -0.1844 0.9749 0.1247
vn -0.6551 -0.7552 0.0206
vn -0.9833 -0.1602 -0.0859
vn -0.9831 0.1611 -0.0873
vn -0.2412 -0.9667 -0.0853
vn -0.8744 -0.1321 0.4669
vn -0.3006 0.9454 -0.1261
vn -0.1912 0.9603 -0.2031
vn -0.1751 0.9829 -0.0571
vn -0.0706 0.9901 -0.1212
vn -0.1533 -0.3368 -0.9290
vn -0.0091 0.3509 0.9364
vn 0.9997 0.0157 0.0165
vn 0.7280 0.6854 0.0123
vn -0.0035 0.6868 0.7269
vn -0.9945 0.0000 -0.1047
vn -0.1567 0.0000 -0.9876
vn -0.0048 0.0000 1.0000
vn 0.9999 0.0000 0.0168
vn -0.7282 0.6811 -0.0766
vn -0.1151 0.6788 -0.7252
vn -0.0090 -0.9947 -0.1028
vn -0.7341 -0.6657 -0.1340
vn -0.9898 -0.0983 -0.1027
vn -0.1283 -0.2192 0.9672
vn -0.9633 -0.2640 -0.0477
vn -0.8212 0.5693 -0.0377
vn -0.0623 -0.9980 -0.0065
vn -0.9976 -0.0496 -0.0494
vn -0.1121 0.4610 0.8803
vn -0.1130 0.2285 0.9670
vn -0.1146 -0.0451 0.9924
vn -0.1132 -0.0450 -0.9926
vn -0.1112 0.2284 -0.9672
vn -0.1113 0.4589 -0.8815
vn -0.0083 -0.9912 0.1321
vn -0.1277 -0.2185 -0.9674
vn -0.1245 -0.9749 0.1843
vn -0.6156 -0.7873 -0.0338
vn -0.1343 -0.9503 -0.2809
vn 0.0947 -0.9955 0.0021
vn 0.9941 -0.0602 -0.0903
vn 0.9942 -0.0998 -0.0405
vn -0.9909 -0.0930 -0.0968
vn -0.9990 0.0005 -0.0447
vn 0.9986 0.0250 0.0467
vn -0.9929 -0.0670 -0.0980
vn -0.9847 -0.1619 -0.0645
vn 0.9872 -0.1590 -0.0129
vn -0.9616 0.2744 -0.0118
vn -0.9573 0.2887 -0.0117
vn -0.9576 0.2812 -0.0627
vn -0.9576 0.2811 -0.0622
vn 0.1308 0.9913 0.0136
vn 0.0686 0.0755 0.9948
vn 0.2001 0.9796 0.0208
vn 0.1598 0.0511 -0.9858
vn -0.0052 1.0000 -0.0005
vn 0.0574 0.0810 -0.9951
vn -0.1308 -0.9913 -0.0136
vn -0.0325 0.1061 0.9938
vn -0.9548 0.2802 -0.0992
vn -0.3259 0.1830 -0.9275
vn -0.6269 -0.7764 -0.0651
vn -0.5197 0.2373 0.8208
usemtl Material
s off
f 16/1/1 14/2/1 4/3/1 9/4/1
f 15/5/2 22/6/2 3/7/2 6/8/2
f 11/9/3 20/10/3 21/11/3 5/12/3
f 7/13/4 11/9/4 5/12/4 2/14/4
f 14/15/5 15/5/5 6/8/5 4/16/5
f 4/17/6 6/18/6 12/19/6 9/20/6
f 129/21/7 133/22/7 11/9/7 7/13/7
f 133/22/8 132/23/8 20/10/8 11/9/8
f 6/18/9 3/24/9 8/25/9 12/19/9
f 22/26/10 23/27/10 8/28/10 3/29/10
f 13/30/11 1/31/11 25/32/11 26/33/11
f 129/21/12 7/13/12 38/34/12 140/35/12
f 2/36/13 5/37/13 15/5/13 14/15/13
f 5/37/14 21/38/14 22/6/14 15/5/14
f 7/39/15 2/14/15 14/2/15 16/1/15
f 131/40/16 9/4/16 18/41/16 136/42/16
f 9/20/17 12/19/17 19/43/17 18/44/17
f 10/45/18 1/31/18 21/46/18 20/47/18
f 1/31/19 13/30/19 22/26/19 21/46/19
f 17/48/20 10/45/20 20/47/20 23/27/20
f 13/30/21 17/48/21 23/27/21 22/26/21
f 1/31/22 10/45/22 24/49/22 25/32/22
f 17/48/23 13/30/23 26/33/23 27/50/23
f 10/45/24 17/48/24 27/50/24 24/49/24
f 28/51/25 31/52/25 35/53/25 32/54/25
f 31/52/26 30/55/26 34/56/26 35/53/26
f 26/33/27 25/32/27 29/57/27 30/55/27
f 25/32/28 24/49/28 28/51/28 29/57/28
f 27/50/29 26/33/29 30/55/29 31/52/29
f 24/49/30 27/50/30 31/52/30 28/51/30
f 33/58/31 32/54/31 35/53/31 34/56/31
f 30/55/32 29/57/32 33/58/32 34/56/32
f 29/57/33 28/51/33 32/54/33 33/58/33
f 140/35/34 38/34/34 36/59/34 139/60/34
f 16/1/35 36/59/35 38/34/35 7/13/35
f 16/1/36 9/4/36 37/61/36 36/59/36
f 145/62/37 152/63/37 52/64/37 46/65/37
f 46/65/38 52/64/38 53/66/38 41/67/38
f 37/61/39 69/68/39 68/69/39 36/59/39
f 42/70/40 71/71/40 74/72/40 45/73/40
f 70/74/41 46/65/41 41/67/41 67/75/41
f 138/76/42 143/77/42 69/68/42 37/61/42
f 143/77/43 144/78/43 70/74/43 69/68/43
f 144/78/44 145/62/44 46/65/44 70/74/44
f 67/75/45 41/67/45 51/79/45 50/80/45
f 68/69/46 67/75/46 50/80/46 49/81/46
f 36/59/47 68/69/47 49/81/47 139/60/47
f 60/82/48 57/83/48 58/84/48 59/85/48
f 9/4/49 131/40/49 138/76/49 37/61/49
f 12/19/50 134/86/50 137/87/50 19/43/50
f 18/44/51 19/43/51 137/87/51 136/88/51
f 20/47/52 132/89/52 135/90/52 23/27/52
f 23/27/53 135/90/53 130/91/53 8/28/53
f 12/19/54 8/25/54 130/92/54 134/86/54
f 41/67/55 53/66/55 54/93/55 51/79/55
f 39/94/56 52/64/56 152/63/56 47/95/56
f 40/96/57 53/66/57 52/64/57 39/94/57
f 48/97/58 54/93/58 53/66/58 40/96/58
f 47/95/59 152/63/59 54/93/59 48/97/59
f 55/98/60 58/84/60 57/83/60 56/99/60
f 55/98/61 63/100/61 66/101/61 62/102/61
f 59/85/62 58/84/62 62/102/62
f 61/103/63 57/83/63 60/82/63
f 39/94/64 61/103/64 60/82/64 40/96/64
f 48/97/65 59/85/65 62/102/65 47/95/65
f 47/95/66 62/102/66 61/103/66 39/94/66
f 40/96/67 60/82/67 59/85/67 48/97/67
f 66/101/68 63/100/68 64/104/68 65/105/68
f 56/99/69 64/104/69 63/100/69 55/98/69
f 62/102/70 66/101/70 65/105/70 61/103/70
f 61/103/71 65/105/71 64/104/71 56/99/71
f 57/83/72 61/103/72 56/99/72
f 58/84/73 55/98/73 62/102/73
f 42/70/74 67/75/74 68/69/74 43/106/74
f 44/107/75 69/68/75 70/74/75 45/73/75
f 43/106/76 68/69/76 69/68/76 44/107/76
f 45/73/77 70/74/77 67/75/77 42/70/77
f 73/108/78 77/109/78 76/110/78 72/111/78
f 45/73/79 74/72/79 73/108/79 44/107/79
f 44/107/80 73/108/80 72/111/80 43/106/80
f 43/106/81 72/111/81 71/71/81 42/70/81
f 77/109/82 81/112/82 80/113/82 76/110/82
f 72/111/83 76/110/83 75/114/83 71/71/83
f 71/71/84 75/114/84 78/115/84 74/72/84
f 74/72/85 78/115/85 77/109/85 73/108/85
f 81/112/86 82/116/86 79/117/86 80/113/86
f 76/110/87 80/113/87 79/117/87 75/114/87
f 75/114/88 79/117/88 82/116/88 78/115/88
f 78/115/89 82/116/89 81/112/89 77/109/89
f 98/118/90 91/119/90 86/120/90 96/121/90
f 97/122/91 88/123/91 85/124/91 104/125/91
f 93/126/92 87/127/92 103/128/92 102/129/92
f 89/130/93 84/131/93 87/127/93 93/126/93
f 96/132/94 86/133/94 88/123/94 97/122/94
f 86/134/95 91/135/95 94/136/95 88/137/95
f 129/21/7 89/130/7 93/126/7 133/22/7
f 133/22/8 93/126/8 102/129/8 132/23/8
f 88/137/96 94/136/96 90/138/96 85/139/96
f 104/140/97 85/141/97 90/142/97 105/143/97
f 95/144/98 108/145/98 107/146/98 83/147/98
f 129/21/12 140/35/12 120/148/12 89/130/12
f 84/149/99 96/132/99 97/122/99 87/150/99
f 87/150/100 97/122/100 104/125/100 103/151/100
f 89/152/101 98/118/101 96/121/101 84/131/101
f 131/40/16 136/42/16 100/153/16 91/119/16
f 91/135/102 100/154/102 101/155/102 94/136/102
f 92/156/103 102/157/103 103/158/103 83/147/103
f 83/147/104 103/158/104 104/140/104 95/144/104
f 99/159/105 105/143/105 102/157/105 92/156/105
f 95/144/106 104/140/106 105/143/106 99/159/106
f 83/147/107 107/146/107 106/160/107 92/156/107
f 99/159/108 109/161/108 108/145/108 95/144/108
f 92/156/109 106/160/109 109/161/109 99/159/109
f 110/162/110 114/163/110 117/164/110 113/165/110
f 113/165/111 117/164/111 116/166/111 112/167/111
f 108/145/112 112/167/112 111/168/112 107/146/112
f 107/146/113 111/168/113 110/162/113 106/160/113
f 109/161/114 113/165/114 112/167/114 108/145/114
f 106/160/115 110/162/115 113/165/115 109/161/115
f 115/169/31 116/166/31 117/164/31 114/163/31
f 112/167/116 116/166/116 115/169/116 111/168/116
f 111/168/117 115/169/117 114/163/117 110/162/117
f 140/35/118 139/60/118 118/170/118 120/148/118
f 98/118/119 89/130/119 120/148/119 118/170/119
f 98/118/120 118/170/120 119/171/120 91/119/120
f 145/62/121 128/172/121 149/173/121 152/63/121
f 128/172/122 123/174/122 150/175/122 149/173/122
f 119/171/123 118/170/123 166/176/123 167/177/123
f 124/178/124 127/179/124 172/180/124 169/181/124
f 168/182/125 165/183/125 123/174/125 128/172/125
f 138/76/126 119/171/126 167/177/126 143/77/126
f 143/77/127 167/177/127 168/182/127 144/78/127
f 144/78/128 168/182/128 128/172/128 145/62/128
f 165/183/129 147/184/129 148/185/129 123/174/129
f 166/176/130 146/186/130 147/184/130 165/183/130
f 118/170/131 139/60/131 146/186/131 166/176/131
f 158/187/48 157/188/48 156/189/48 155/190/48
f 91/119/132 119/171/132 138/76/132 131/40/132
f 94/136/50 101/155/50 137/87/50 134/86/50
f 100/154/51 136/88/51 137/87/51 101/155/51
f 102/157/52 105/143/52 135/90/52 132/89/52
f 105/143/53 90/142/53 130/91/53 135/90/53
f 94/136/54 134/86/54 130/92/54 90/138/54
f 123/174/133 148/185/133 151/191/133 150/175/133
f 121/192/134 141/193/134 152/63/134 149/173/134
f 122/194/135 121/192/135 149/173/135 150/175/135
f 142/195/136 122/194/136 150/175/136 151/191/136
f 141/193/137 142/195/137 151/191/137 152/63/137
f 153/196/60 154/197/60 155/190/60 156/189/60
f 153/196/138 160/198/138 164/199/138 161/200/138
f 157/188/139 160/198/139 156/189/139
f 159/201/140 158/187/140 155/190/140
f 121/192/141 122/194/141 158/187/141 159/201/141
f 142/195/142 141/193/142 160/198/142 157/188/142
f 141/193/66 121/192/66 159/201/66 160/198/66
f 122/194/67 142/195/67 157/188/67 158/187/67
f 164/199/68 163/202/68 162/203/68 161/200/68
f 154/197/69 153/196/69 161/200/69 162/203/69
f 160/198/70 159/201/70 163/202/70 164/199/70
f 159/201/143 154/197/143 162/203/143 163/202/143
f 155/190/144 154/197/144 159/201/144
f 156/189/145 160/198/145 153/196/145
f 124/178/146 125/204/146 166/176/146 165/183/146
f 126/205/147 127/179/147 168/182/147 167/177/147
f 125/204/148 126/205/148 167/177/148 166/176/148
f 127/179/149 124/178/149 165/183/149 168/182/149
f 171/206/150 170/207/150 174/208/150 175/209/150
f 127/179/151 126/205/151 171/206/151 172/180/151
f 126/205/152 125/204/152 170/207/152 171/206/152
f 125/204/153 124/178/153 169/181/153 170/207/153
f 175/209/154 174/208/154 178/210/154 179/211/154
f 170/207/155 169/181/155 173/212/155 174/208/155
f 169/181/156 172/180/156 176/213/156 173/212/156
f 172/180/157 171/206/157 175/209/157 176/213/157
f 179/211/158 178/210/158 177/214/158 180/215/158
f 174/208/159 173/212/159 177/214/159 178/210/159
f 173/212/160 176/213/160 180/215/160 177/214/160
f 176/213/161 175/209/161 179/211/161 180/215/161
